<svg width="26" height="27" viewBox="0 0 26 27" fill="none" xmlns="http://www.w3.org/2000/svg">
<path d="M0.8125 16.5874C1.02799 16.5874 1.23465 16.673 1.38702 16.8254C1.5394 16.9778 1.625 17.1844 1.625 17.3999V21.4624C1.625 21.8934 1.7962 22.3067 2.10095 22.6115C2.4057 22.9162 2.81902 23.0874 3.25 23.0874H22.75C23.181 23.0874 23.5943 22.9162 23.899 22.6115C24.2038 22.3067 24.375 21.8934 24.375 21.4624V17.3999C24.375 17.1844 24.4606 16.9778 24.613 16.8254C24.7653 16.673 24.972 16.5874 25.1875 16.5874C25.403 16.5874 25.6097 16.673 25.762 16.8254C25.9144 16.9778 26 17.1844 26 17.3999V21.4624C26 22.3244 25.6576 23.151 25.0481 23.7605C24.4386 24.37 23.612 24.7124 22.75 24.7124H3.25C2.38805 24.7124 1.5614 24.37 0.951903 23.7605C0.34241 23.151 0 22.3244 0 21.4624V17.3999C0 17.1844 0.0856024 16.9778 0.237976 16.8254C0.390349 16.673 0.597012 16.5874 0.8125 16.5874Z" fill="#50CAFF"/>
<path d="M12.4247 19.7628C12.5002 19.8384 12.5899 19.8984 12.6886 19.9394C12.7873 19.9804 12.8931 20.0015 13 20.0015C13.1069 20.0015 13.2127 19.9804 13.3114 19.9394C13.4101 19.8984 13.4998 19.8384 13.5752 19.7628L18.4502 14.8878C18.6028 14.7352 18.6885 14.5283 18.6885 14.3125C18.6885 14.0967 18.6028 13.8898 18.4502 13.7372C18.2977 13.5847 18.0907 13.499 17.875 13.499C17.6592 13.499 17.4523 13.5847 17.2997 13.7372L13.8125 17.2261V2.9375C13.8125 2.72201 13.7269 2.51535 13.5745 2.36298C13.4221 2.2106 13.2155 2.125 13 2.125C12.7845 2.125 12.5778 2.2106 12.4255 2.36298C12.2731 2.51535 12.1875 2.72201 12.1875 2.9375V17.2261L8.70024 13.7372C8.54767 13.5847 8.34075 13.499 8.12499 13.499C7.90923 13.499 7.7023 13.5847 7.54974 13.7372C7.39717 13.8898 7.31146 14.0967 7.31146 14.3125C7.31146 14.5283 7.39717 14.7352 7.54974 14.8878L12.4247 19.7628Z" fill="#50CAFF"/>
</svg>
