<svg width="24" height="25" viewBox="0 0 24 25" fill="none" xmlns="http://www.w3.org/2000/svg">
<path d="M19.3333 22.3334H19.8333V21.8334V6.50008V6.00008H19.3333H7.33333H6.83333V6.50008V21.8334V22.3334H7.33333H19.3333ZM7 5.66675H19.6667C19.7993 5.66675 19.9264 5.71943 20.0202 5.81319C20.114 5.90696 20.1667 6.03414 20.1667 6.16675V22.1667C20.1667 22.2994 20.114 22.4265 20.0202 22.5203C19.9265 22.6141 19.7993 22.6667 19.6667 22.6667H7C6.86739 22.6667 6.74021 22.6141 6.64645 22.5203C6.55268 22.4265 6.5 22.2994 6.5 22.1667V6.16675C6.5 6.03414 6.55268 5.90696 6.64645 5.81319C6.74021 5.71943 6.86739 5.66675 7 5.66675Z" fill="black" stroke="black"/>
<path d="M3.99984 2.66683H3.49984V3.16683V19.3049C3.43019 19.2803 3.36619 19.2403 3.31295 19.1871L2.95993 19.5401L3.31295 19.187C3.21918 19.0933 3.1665 18.9661 3.1665 18.8335V2.8335C3.1665 2.70089 3.21918 2.57371 3.31295 2.47994C3.40672 2.38617 3.5339 2.3335 3.6665 2.3335H16.3332C16.4658 2.3335 16.593 2.38617 16.6867 2.47994C16.74 2.53318 16.7799 2.59718 16.8046 2.66683H3.99984Z" fill="black" stroke="black"/>
</svg>
