<svg width="103" height="73" viewBox="0 0 103 73" fill="none" xmlns="http://www.w3.org/2000/svg">
<path d="M8.58691 17.3256C8.58691 16.5796 8.72679 15.8394 9.00655 15.105C9.2863 14.359 9.69428 13.6946 10.2305 13.1118C10.7667 12.529 11.4194 12.0569 12.1888 11.6955C12.9581 11.3342 13.8323 11.1535 14.8115 11.1535C15.9771 11.1535 16.9854 11.4041 17.8363 11.9053C18.6989 12.4066 19.34 13.0593 19.7596 13.8636L17.5566 15.4023C17.4167 15.0759 17.236 14.8078 17.0145 14.598C16.8047 14.3765 16.5716 14.2017 16.3151 14.0734C16.0587 13.9336 15.7964 13.8403 15.5283 13.7937C15.2602 13.7354 14.998 13.7063 14.7415 13.7063C14.1937 13.7063 13.7158 13.817 13.3078 14.0385C12.8998 14.2599 12.5618 14.5455 12.2937 14.8952C12.0256 15.2449 11.8274 15.6412 11.6992 16.0842C11.571 16.5271 11.5069 16.9759 11.5069 17.4305C11.5069 17.9201 11.5826 18.3922 11.7342 18.8468C11.8857 19.3014 12.1013 19.7035 12.3811 20.0532C12.6725 20.4029 13.0164 20.6826 13.4127 20.8925C13.8207 21.0906 14.2753 21.1897 14.7765 21.1897C15.0329 21.1897 15.2952 21.1606 15.5633 21.1023C15.8431 21.0323 16.1053 20.9333 16.3501 20.805C16.6066 20.6652 16.8397 20.4903 17.0495 20.2805C17.2593 20.059 17.4283 19.7909 17.5566 19.4762L19.8995 20.8575C19.713 21.3121 19.4332 21.7201 19.0602 22.0814C18.6989 22.4428 18.2793 22.7458 17.8013 22.9906C17.3234 23.2354 16.8164 23.4219 16.2802 23.5501C15.744 23.6784 15.2194 23.7425 14.7066 23.7425C13.809 23.7425 12.9814 23.5618 12.2237 23.2004C11.4777 22.8274 10.8308 22.3379 10.2829 21.7317C9.74673 21.1256 9.3271 20.4379 9.02403 19.6685C8.73262 18.8992 8.58691 18.1182 8.58691 17.3256Z" fill="#212121"/>
<path d="M35.5916 20.4553C35.5916 20.9915 35.4809 21.4578 35.2594 21.8541C35.0379 22.2504 34.7349 22.5826 34.3502 22.8507C33.9655 23.1072 33.5168 23.3053 33.0039 23.4452C32.491 23.5734 31.949 23.6376 31.3778 23.6376H25.3281V11.2234H32.2345C32.6658 11.2234 33.0563 11.3167 33.406 11.5032C33.7557 11.6897 34.0529 11.9345 34.2977 12.2375C34.5425 12.529 34.729 12.867 34.8572 13.2517C34.9971 13.6247 35.0671 14.0093 35.0671 14.4056C35.0671 15.0001 34.9155 15.5596 34.6125 16.0842C34.321 16.6087 33.8781 17.005 33.2836 17.2731C33.9947 17.4829 34.5542 17.856 34.9622 18.3922C35.3818 18.9283 35.5916 19.6161 35.5916 20.4553ZM32.6717 19.8783C32.6717 19.4937 32.5609 19.1673 32.3395 18.8992C32.118 18.6311 31.8382 18.4971 31.5002 18.4971H28.1956V21.2072H31.3778C31.7508 21.2072 32.0597 21.0848 32.3045 20.84C32.5493 20.5952 32.6717 20.2747 32.6717 19.8783ZM28.1956 13.6713V16.2415H31.0106C31.3253 16.2415 31.6051 16.1366 31.8499 15.9268C32.0947 15.717 32.2171 15.3906 32.2171 14.9477C32.2171 14.5397 32.1063 14.225 31.8848 14.0035C31.675 13.782 31.4186 13.6713 31.1155 13.6713H28.1956Z" fill="#212121"/>
<path d="M41.4748 23.6376V11.2234H44.3423V23.6376H41.4748Z" fill="#212121"/>
<path d="M59.9323 7.62158C59.9323 8.00625 59.8507 8.36177 59.6875 8.68815C59.5244 9.00287 59.2912 9.2768 58.9882 9.50993C58.6967 9.7314 58.3471 9.90625 57.9391 10.0345C57.5311 10.1627 57.0765 10.2268 56.5753 10.2268C56.074 10.2268 55.6194 10.1627 55.2115 10.0345C54.8035 9.90625 54.448 9.7314 54.1449 9.50993C53.8535 9.2768 53.6262 9.00287 53.463 8.68815C53.2998 8.36177 53.2182 8.00625 53.2182 7.62158H54.9492C54.9492 7.77312 54.99 7.91882 55.0716 8.0587C55.1648 8.18692 55.2814 8.30349 55.4213 8.40839C55.5728 8.50165 55.7477 8.57741 55.9458 8.63569C56.144 8.69398 56.3538 8.72312 56.5753 8.72312C56.9949 8.72312 57.3563 8.61821 57.6593 8.40839C57.974 8.19858 58.1605 7.93631 58.2188 7.62158H59.9323ZM53.7428 19.179L59.5826 11.2234H61.7158V23.6376H58.8483V15.8744L53.0783 23.6376H50.8578V11.2234H53.7428V19.179Z" fill="#212121"/>
<path d="M9.79066 33.4626C10.3502 32.8798 10.9796 32.4427 11.679 32.1513C12.3901 31.8482 13.2293 31.6967 14.1968 31.6967C15.4207 31.6967 16.394 31.9647 17.1167 32.5009C17.8394 33.0371 18.2008 33.8298 18.2008 34.8789C18.2008 35.4617 18.0551 36.0037 17.7637 36.5049C17.4839 37.0062 17.0002 37.3792 16.3124 37.624C17.0818 37.8105 17.6646 38.1718 18.0609 38.708C18.4689 39.2326 18.6729 39.8737 18.6729 40.6313C18.6729 41.2141 18.5563 41.7387 18.3232 42.2049C18.0901 42.6595 17.7637 43.0442 17.344 43.3589C16.9361 43.6737 16.4465 43.9126 15.8753 44.0758C15.3158 44.239 14.7097 44.3206 14.0569 44.3206C13.1128 44.3206 12.2851 44.1865 11.5741 43.9184C10.8631 43.6387 10.187 43.2074 9.54588 42.6246L11.0146 40.5089C11.4109 40.8819 11.8364 41.185 12.291 41.4181C12.7572 41.6396 13.3051 41.7503 13.9345 41.7503C14.4591 41.7503 14.8904 41.6221 15.2284 41.3657C15.5781 41.0976 15.7529 40.7013 15.7529 40.1767C15.7529 39.7338 15.5897 39.3608 15.2634 39.0577C14.9486 38.7546 14.4358 38.6031 13.7247 38.6031H12.221V36.6098H13.5149C14.1793 36.6098 14.6805 36.4933 15.0186 36.2602C15.3566 36.027 15.5256 35.6948 15.5256 35.2635C15.5256 34.8905 15.4032 34.6049 15.1585 34.4068C14.9137 34.197 14.5348 34.0921 14.022 34.0921C13.4624 34.0921 12.9612 34.1911 12.5183 34.3893C12.087 34.5875 11.679 34.873 11.2943 35.246L9.79066 33.4626Z" fill="#212121"/>
<path d="M28.5365 31.8016H31.1242L35.6528 44.2157H32.7153L31.7537 41.4356H27.8896L26.9454 44.2157H24.008L28.5365 31.8016ZM31.2816 39.4599L29.8304 35.0712L28.3442 39.4599H31.2816Z" fill="#212121"/>
<path d="M8.58691 58.4818C8.58691 57.7358 8.72679 56.9956 9.00655 56.2613C9.2863 55.5153 9.69428 54.8509 10.2305 54.268C10.7667 53.6852 11.4194 53.2131 12.1888 52.8518C12.9581 52.4904 13.8323 52.3097 14.8115 52.3097C15.9771 52.3097 16.9854 52.5604 17.8363 53.0616C18.6989 53.5628 19.34 54.2156 19.7596 55.0199L17.5566 56.5585C17.4167 56.2322 17.236 55.9641 17.0145 55.7542C16.8047 55.5328 16.5716 55.3579 16.3151 55.2297C16.0587 55.0898 15.7964 54.9966 15.5283 54.9499C15.2602 54.8917 14.998 54.8625 14.7415 54.8625C14.1937 54.8625 13.7158 54.9733 13.3078 55.1947C12.8998 55.4162 12.5618 55.7018 12.2937 56.0515C12.0256 56.4012 11.8274 56.7975 11.6992 57.2404C11.571 57.6834 11.5069 58.1322 11.5069 58.5868C11.5069 59.0763 11.5826 59.5484 11.7342 60.003C11.8857 60.4576 12.1013 60.8598 12.3811 61.2095C12.6725 61.5592 13.0164 61.8389 13.4127 62.0487C13.8207 62.2469 14.2753 62.346 14.7765 62.346C15.0329 62.346 15.2952 62.3168 15.5633 62.2585C15.8431 62.1886 16.1053 62.0895 16.3501 61.9613C16.6066 61.8214 16.8397 61.6466 17.0495 61.4368C17.2593 61.2153 17.4283 60.9472 17.5566 60.6325L19.8995 62.0138C19.713 62.4684 19.4332 62.8763 19.0602 63.2377C18.6989 63.599 18.2793 63.9021 17.8013 64.1469C17.3234 64.3917 16.8164 64.5782 16.2802 64.7064C15.744 64.8346 15.2194 64.8987 14.7066 64.8987C13.809 64.8987 12.9814 64.7181 12.2237 64.3567C11.4777 63.9837 10.8308 63.4941 10.2829 62.888C9.74673 62.2819 9.3271 61.5941 9.02403 60.8248C8.73262 60.0555 8.58691 59.2745 8.58691 58.4818Z" fill="#212121"/>
<path d="M35.5916 61.6116C35.5916 62.1478 35.4809 62.6141 35.2594 63.0104C35.0379 63.4067 34.7349 63.7389 34.3502 64.007C33.9655 64.2635 33.5168 64.4616 33.0039 64.6015C32.491 64.7297 31.949 64.7938 31.3778 64.7938H25.3281V52.3797H32.2345C32.6658 52.3797 33.0563 52.4729 33.406 52.6594C33.7557 52.846 34.0529 53.0907 34.2977 53.3938C34.5425 53.6852 34.729 54.0233 34.8572 54.4079C34.9971 54.7809 35.0671 55.1656 35.0671 55.5619C35.0671 56.1564 34.9155 56.7159 34.6125 57.2404C34.321 57.765 33.8781 58.1613 33.2836 58.4294C33.9947 58.6392 34.5542 59.0122 34.9622 59.5484C35.3818 60.0846 35.5916 60.7723 35.5916 61.6116ZM32.6717 61.0346C32.6717 60.65 32.5609 60.3236 32.3395 60.0555C32.118 59.7874 31.8382 59.6533 31.5002 59.6533H28.1956V62.3634H31.3778C31.7508 62.3634 32.0597 62.2411 32.3045 61.9963C32.5493 61.7515 32.6717 61.4309 32.6717 61.0346ZM28.1956 54.8275V57.3978H31.0106C31.3253 57.3978 31.6051 57.2929 31.8499 57.0831C32.0947 56.8733 32.2171 56.5469 32.2171 56.1039C32.2171 55.696 32.1063 55.3812 31.8848 55.1598C31.675 54.9383 31.4186 54.8275 31.1155 54.8275H28.1956Z" fill="#212121"/>
<path d="M46.8601 64.8987C45.9392 64.8987 45.0999 64.7181 44.3423 64.3567C43.5846 63.9954 42.9377 63.5233 42.4015 62.9404C41.8653 62.346 41.4456 61.6699 41.1426 60.9122C40.8512 60.1546 40.7055 59.3736 40.7055 58.5693C40.7055 57.7533 40.857 56.9665 41.1601 56.2088C41.4748 55.4512 41.9061 54.7868 42.4539 54.2156C43.0134 53.6328 43.672 53.1723 44.4297 52.8343C45.1874 52.4846 46.015 52.3097 46.9125 52.3097C47.8334 52.3097 48.6726 52.4904 49.4303 52.8518C50.188 53.2131 50.8349 53.691 51.3711 54.2855C51.9073 54.88 52.3211 55.5561 52.6125 56.3137C52.9039 57.0714 53.0497 57.8407 53.0497 58.6217C53.0497 59.4377 52.8923 60.2245 52.5776 60.9822C52.2745 61.7398 51.849 62.4101 51.3012 62.9929C50.7533 63.5641 50.1006 64.0245 49.3429 64.3742C48.5852 64.7239 47.7576 64.8987 46.8601 64.8987ZM43.6254 58.6042C43.6254 59.0822 43.6953 59.5484 43.8352 60.003C43.9751 60.446 44.1791 60.8423 44.4472 61.192C44.7269 61.5417 45.0708 61.8214 45.4788 62.0312C45.8868 62.2411 46.353 62.346 46.8776 62.346C47.4254 62.346 47.9033 62.2352 48.3113 62.0138C48.7193 61.7923 49.0573 61.5067 49.3254 61.157C49.5935 60.7957 49.7917 60.3935 49.9199 59.9506C50.0598 59.496 50.1297 59.0355 50.1297 58.5693C50.1297 58.0914 50.0598 57.6309 49.9199 57.188C49.78 56.7334 49.5702 56.3371 49.2904 55.999C49.0107 55.6493 48.6668 55.3754 48.2589 55.1772C47.8625 54.9674 47.4021 54.8625 46.8776 54.8625C46.3297 54.8625 45.8518 54.9733 45.4438 55.1947C45.0475 55.4045 44.7095 55.6843 44.4297 56.034C44.1616 56.3837 43.9576 56.7858 43.8177 57.2404C43.6895 57.6834 43.6254 58.138 43.6254 58.6042Z" fill="#212121"/>
<path d="M66.6137 54.8975H61.6655V64.7938H58.7805V52.3797H66.6137V54.8975Z" fill="#212121"/>
<path d="M76.6052 64.8987C75.6844 64.8987 74.8451 64.7181 74.0874 64.3567C73.3298 63.9954 72.6828 63.5233 72.1466 62.9404C71.6104 62.346 71.1908 61.6699 70.8877 60.9122C70.5963 60.1546 70.4506 59.3736 70.4506 58.5693C70.4506 57.7533 70.6021 56.9665 70.9052 56.2088C71.2199 55.4512 71.6512 54.7868 72.1991 54.2156C72.7586 53.6328 73.4172 53.1723 74.1748 52.8343C74.9325 52.4846 75.7601 52.3097 76.6577 52.3097C77.5785 52.3097 78.4178 52.4904 79.1755 52.8518C79.9331 53.2131 80.5801 53.691 81.1163 54.2855C81.6525 54.88 82.0663 55.5561 82.3577 56.3137C82.6491 57.0714 82.7948 57.8407 82.7948 58.6217C82.7948 59.4377 82.6374 60.2245 82.3227 60.9822C82.0196 61.7398 81.5942 62.4101 81.0463 62.9929C80.4985 63.5641 79.8457 64.0245 79.088 64.3742C78.3304 64.7239 77.5028 64.8987 76.6052 64.8987ZM73.3705 58.6042C73.3705 59.0822 73.4405 59.5484 73.5804 60.003C73.7202 60.446 73.9242 60.8423 74.1923 61.192C74.4721 61.5417 74.8159 61.8214 75.2239 62.0312C75.6319 62.2411 76.0982 62.346 76.6227 62.346C77.1706 62.346 77.6485 62.2352 78.0564 62.0138C78.4644 61.7923 78.8025 61.5067 79.0706 61.157C79.3386 60.7957 79.5368 60.3935 79.665 59.9506C79.8049 59.496 79.8749 59.0355 79.8749 58.5693C79.8749 58.0914 79.8049 57.6309 79.665 57.188C79.5252 56.7334 79.3153 56.3371 79.0356 55.999C78.7558 55.6493 78.412 55.3754 78.004 55.1772C77.6077 54.9674 77.1472 54.8625 76.6227 54.8625C76.0748 54.8625 75.5969 54.9733 75.1889 55.1947C74.7926 55.4045 74.4546 55.6843 74.1748 56.034C73.9067 56.3837 73.7028 56.7858 73.5629 57.2404C73.4347 57.6834 73.3705 58.138 73.3705 58.6042Z" fill="#212121"/>
<g clip-path="url(#clip0_89_864)">
<path d="M45.7914 43.7952C45.7914 43.7952 44.1178 44.7095 41.8862 45.0004C41.6287 45.0419 41.3712 45.0835 41.1566 45.1666V35.2762C43.8174 32.9907 48.2805 32.3258 52.7007 32.8244C59.095 33.5309 64.8027 29.5415 65.7468 27.6299C66.6909 25.7184 69.7808 27.0482 71.2828 27.1728C72.8277 27.2975 74.2439 25.9677 74.2439 25.9677C74.2439 25.9677 72.7419 30.0818 68.5362 30.3726C70.5103 30.3311 71.4115 30.248 71.6261 30.0402C71.8407 29.874 70.0812 33.3647 65.7039 32.9907C66.1759 33.3647 68.1071 33.4478 68.7079 33.4478C67.9354 34.2373 65.8755 35.9827 61.3695 35.1931C61.7986 35.5256 63.5152 36.0658 63.9444 35.9827C64.3735 35.8996 61.1978 38.1021 57.593 36.6476C56.5201 36.0243 57.6359 37.7281 59.5241 37.7696C58.0221 38.3929 55.9622 38.9332 52.7007 37.7696C53.2586 38.1436 54.1169 38.8501 55.2756 38.9332C56.4343 39.0578 51.8424 40.1799 49.2246 38.5592C49.6108 39.0994 50.7266 39.6812 51.3703 39.8474C52.0141 40.0136 49.053 41.5096 45.9202 39.9721C46.5639 40.4292 47.1218 40.8032 48.023 41.0941C48.9242 41.385 46.4781 42.2992 43.9032 41.6343C44.504 41.9252 45.7914 42.2992 46.6926 42.2161C47.5939 42.133 45.6198 43.8783 43.6028 43.4212C44.2465 43.629 45.7914 43.7952 45.7914 43.7952ZM102.053 24.3886C100.379 24.721 96.9029 25.7184 89.9507 26.217C82.8698 26.7157 79.4795 26.5495 75.4026 26.0924C75.1022 28.3364 72.5702 29.5831 72.5702 29.5831C85.3588 30.9544 89.6503 29.5831 94.4567 28.378C99.2203 27.2144 103.555 24.1392 102.053 24.3886ZM92.9118 29.7909C88.3628 30.4142 83.2131 31.1622 72.699 30.1233C72.699 30.1233 71.197 32.2427 69.7808 33.0322C71.6261 33.4062 82.0115 33.7387 86.1742 33.2816C93.8988 32.4504 96.4308 30.5804 98.6195 29.0429C100.636 27.6715 96.6883 29.2922 92.9118 29.7909ZM88.3199 34.0296C83.7281 34.5282 79.9945 34.8191 69.3516 33.5309C69.3516 33.5309 67.7638 35.4009 65.5322 35.7749C67.3775 36.1905 75.0593 37.8112 81.4965 37.3125C89.264 36.7307 91.8389 34.9022 94.0705 33.4478C96.0875 32.118 92.0535 33.614 88.3199 34.0296ZM83.5564 37.8943C78.707 38.1852 74.2439 38.3514 64.7597 36.1905C64.7597 36.1905 63.0002 37.6034 60.7687 37.8112C63.8585 39.141 69.4374 40.5954 75.8747 40.5539C83.6851 40.4707 86.5175 39.141 88.7062 37.7281C90.7232 36.4398 87.3329 37.6865 83.5564 37.8943ZM77.8916 41.3019C72.9994 41.3019 67.2917 41.0941 60.0391 38.1436C60.0391 38.1436 58.7946 39.1825 56.5201 39.0994C59.3525 40.8448 63.601 42.6732 69.9953 43.255C77.9775 44.003 81.8398 42.3823 84.243 41.3019C86.4746 40.3045 82.0544 41.3019 77.8916 41.3019ZM70.5103 43.9615C65.8755 43.4628 61.5411 42.9226 55.8764 39.4318C55.8764 39.4318 54.2027 40.3876 52.1428 40.0967C54.5031 42.0499 57.4642 43.8368 63.2577 44.9588C70.5103 46.3717 73.7718 45.3328 76.1321 44.4601C78.3208 43.629 74.5443 44.4186 70.5103 43.9615ZM62.099 45.499C58.5371 44.751 55.6189 44.1692 51.8853 40.5954C51.8853 40.5954 50.3833 41.385 48.8813 41.2188C50.3404 43.2134 52.1857 44.8341 56.6059 46.1639C62.099 47.8262 64.9314 46.995 67.0342 46.247C68.9225 45.6237 65.8326 46.247 62.099 45.499ZM48.538 41.5928C48.538 41.5928 48.1947 42.0914 47.4651 42.1745C47.7655 42.6732 49.0959 45.499 52.1428 46.8288C55.4472 48.2833 57.3784 47.4522 58.1509 47.2859C55.3614 47.0366 50.9841 45.499 48.538 41.5928ZM48.8813 45.2081C47.5939 43.7537 47.2076 42.6732 47.2076 42.6732C47.2076 42.6732 46.8214 43.3381 46.1348 43.629C46.3922 44.003 47.8084 46.247 49.3534 47.0366C51.1129 47.8677 52.1428 47.4522 52.1428 47.4522C52.1428 47.4522 50.1687 46.6626 48.8813 45.2081ZM45.8773 44.2108V44.1692C45.8773 44.1692 44.3323 44.9172 43.474 45.0004C44.6327 46.2055 46.4781 47.3275 48.1517 47.4937C49.5679 47.6184 46.6068 45.9977 45.8773 44.2108Z" fill="#212121"/>
</g>
<path d="M0 71.5051H82.7167V73H0V71.5051Z" fill="#212121"/>
<path d="M0 0H61.7884V1.49488H0V0Z" fill="#212121"/>
<path d="M1.49512 0L1.49511 73L0.00023642 73L0.000239611 -6.53432e-08L1.49512 0Z" fill="#212121"/>
<defs>
<clipPath id="clip0_89_864">
<rect width="61.1964" height="23.3129" fill="white" transform="translate(41.1566 24.3889)"/>
</clipPath>
</defs>
</svg>
