<svg width="34" height="34" viewBox="0 0 34 34" fill="none" xmlns="http://www.w3.org/2000/svg">
<g clip-path="url(#clip0_162_275)">
<path d="M33.2917 9.21828C33.0992 8.53152 32.7242 7.90977 32.2065 7.41911C31.6743 6.91336 31.0219 6.55159 30.311 6.36794C27.6505 5.66669 16.9915 5.66669 16.9915 5.66669C12.5479 5.61614 8.10538 5.8385 3.68902 6.33253C2.97812 6.52974 2.32698 6.8996 1.79352 7.40919C1.26935 7.91353 0.889686 8.53544 0.691353 9.21686C0.214918 11.7835 -0.0165665 14.3896 1.98507e-05 17C-0.0169801 19.6081 0.213936 22.2134 0.691353 24.7832C0.885436 25.4618 1.26369 26.0809 1.78927 26.5809C2.31485 27.081 2.96935 27.4423 3.68902 27.6335C6.38494 28.3334 16.9915 28.3334 16.9915 28.3334C21.4408 28.384 25.889 28.1616 30.311 27.6675C31.0219 27.4839 31.6743 27.1221 32.2065 26.6164C32.724 26.1258 33.0985 25.504 33.2903 24.8172C33.7791 22.2515 34.0168 19.6444 34 17.0326C34.0368 14.4098 33.7994 11.7903 33.2917 9.21686V9.21828ZM13.6029 21.8507V12.1508L22.4712 17.0014L13.6029 21.8507Z" fill="#50CAFF"/>
</g>
<defs>
<clipPath id="clip0_162_275">
<rect width="34" height="34" fill="white"/>
</clipPath>
</defs>
</svg>
